name rise43.5482peak65.4966fall89.1036.mot
datacolumns 19
datarows 33
range 15.97826600000000 16.03160000000000
endheader
time	ground_force1_vx	ground_force1_vy	ground_force1_vz	ground_force1_px	ground_force1_py	ground_force1_pz	ground_force2_vx	ground_force2_vy	ground_force2_vz	ground_force2_px	ground_force2_py	ground_force2_pz	ground_torque1_x	ground_torque1_y	ground_torque1_z	ground_torque2_x	ground_torque2_y	ground_torque2_z	
15.97826600000000	2.33928100000000	718.67013399999996	43.17373000000000	0.18285100000000	0.00000000000000	0.11241500000000	0.00000000000000	0.00000000000000	0.00000000000000	0.00000000000000	0.00000000000000	0.00000000000000	0.00000000000000	14.65969700000000	0.00000000000000	0.00000000000000	0.00000000000000	0.00000000000000	
15.97994500000000	1.83094600000000	719.22491700000000	43.02865100000000	0.18187300000000	0.00000000000000	0.11243200000000	0.00000000000000	0.00000000000000	0.00000000000000	0.00000000000000	0.00000000000000	0.00000000000000	0.00000000000000	14.65614700000000	0.00000000000000	0.00000000000000	0.00000000000000	0.00000000000000	
15.98160400000000	1.31660000000000	719.79470200000003	42.88552200000000	0.18089100000000	0.00000000000000	0.11244900000000	0.00000000000000	0.00000000000000	0.00000000000000	0.00000000000000	0.00000000000000	0.00000000000000	0.00000000000000	14.65556000000000	0.00000000000000	0.00000000000000	0.00000000000000	0.00000000000000	
15.98327200000000	0.79650100000000	720.37797799999998	42.74449300000000	0.17990700000000	0.00000000000000	0.11246700000000	0.00000000000000	0.00000000000000	0.00000000000000	0.00000000000000	0.00000000000000	0.00000000000000	0.00000000000000	14.65793100000000	0.00000000000000	0.00000000000000	0.00000000000000	0.00000000000000	
15.98493300000000	0.27092000000000	720.97329300000001	42.60571600000000	0.17892200000000	0.00000000000000	0.11248500000000	0.00000000000000	0.00000000000000	0.00000000000000	0.00000000000000	0.00000000000000	0.00000000000000	0.00000000000000	14.66325100000000	0.00000000000000	0.00000000000000	0.00000000000000	0.00000000000000	
15.98660500000000	-0.25986500000000	721.57926399999997	42.46934600000000	0.17793500000000	0.00000000000000	0.11250400000000	0.00000000000000	0.00000000000000	0.00000000000000	0.00000000000000	0.00000000000000	0.00000000000000	0.00000000000000	14.67150900000000	0.00000000000000	0.00000000000000	0.00000000000000	0.00000000000000	
15.98826800000000	-0.79556000000000	722.19457699999998	42.33554000000000	0.17694800000000	0.00000000000000	0.11252300000000	0.00000000000000	0.00000000000000	0.00000000000000	0.00000000000000	0.00000000000000	0.00000000000000	0.00000000000000	14.68268600000000	0.00000000000000	0.00000000000000	0.00000000000000	0.00000000000000	
15.98994300000000	-1.33586900000000	722.81798700000002	42.20445400000000	0.17596100000000	0.00000000000000	0.11254300000000	0.00000000000000	0.00000000000000	0.00000000000000	0.00000000000000	0.00000000000000	0.00000000000000	0.00000000000000	14.69676000000000	0.00000000000000	0.00000000000000	0.00000000000000	0.00000000000000	
15.99159900000000	-1.88048600000000	723.44832699999995	42.07624300000000	0.17497600000000	0.00000000000000	0.11256400000000	0.00000000000000	0.00000000000000	0.00000000000000	0.00000000000000	0.00000000000000	0.00000000000000	0.00000000000000	14.71370600000000	0.00000000000000	0.00000000000000	0.00000000000000	0.00000000000000	
15.99326800000000	-2.42910000000000	724.08450200000004	41.95106400000000	0.17399200000000	0.00000000000000	0.11258500000000	0.00000000000000	0.00000000000000	0.00000000000000	0.00000000000000	0.00000000000000	0.00000000000000	0.00000000000000	14.73349200000000	0.00000000000000	0.00000000000000	0.00000000000000	0.00000000000000	
15.99493400000000	-2.98139800000000	724.72549700000002	41.82907000000000	0.17301100000000	0.00000000000000	0.11260700000000	0.00000000000000	0.00000000000000	0.00000000000000	0.00000000000000	0.00000000000000	0.00000000000000	0.00000000000000	14.75608200000000	0.00000000000000	0.00000000000000	0.00000000000000	0.00000000000000	
15.99659700000000	-3.53706100000000	725.37037499999997	41.71041100000000	0.17203200000000	0.00000000000000	0.11262900000000	0.00000000000000	0.00000000000000	0.00000000000000	0.00000000000000	0.00000000000000	0.00000000000000	0.00000000000000	14.78143600000000	0.00000000000000	0.00000000000000	0.00000000000000	0.00000000000000	
15.99826900000000	-4.09577200000000	726.01828100000000	41.59523700000000	0.17105700000000	0.00000000000000	0.11265200000000	0.00000000000000	0.00000000000000	0.00000000000000	0.00000000000000	0.00000000000000	0.00000000000000	0.00000000000000	14.80950700000000	0.00000000000000	0.00000000000000	0.00000000000000	0.00000000000000	
15.99994700000000	-4.65721300000000	726.66844000000003	41.48369400000000	0.17008600000000	0.00000000000000	0.11267500000000	0.00000000000000	0.00000000000000	0.00000000000000	0.00000000000000	0.00000000000000	0.00000000000000	0.00000000000000	14.84024500000000	0.00000000000000	0.00000000000000	0.00000000000000	0.00000000000000	
16.00160300000000	-5.22106600000000	727.32015999999999	41.37592100000000	0.16912000000000	0.00000000000000	0.11269900000000	0.00000000000000	0.00000000000000	0.00000000000000	0.00000000000000	0.00000000000000	0.00000000000000	0.00000000000000	14.87359600000000	0.00000000000000	0.00000000000000	0.00000000000000	0.00000000000000	
16.00326600000000	-5.78701800000000	727.97282800000005	41.27205700000000	0.16815800000000	0.00000000000000	0.11272400000000	0.00000000000000	0.00000000000000	0.00000000000000	0.00000000000000	0.00000000000000	0.00000000000000	0.00000000000000	14.90949900000000	0.00000000000000	0.00000000000000	0.00000000000000	0.00000000000000	
16.00493800000000	-6.35475600000000	728.62591899999995	41.17223200000000	0.16720100000000	0.00000000000000	0.11274800000000	0.00000000000000	0.00000000000000	0.00000000000000	0.00000000000000	0.00000000000000	0.00000000000000	0.00000000000000	14.94788900000000	0.00000000000000	0.00000000000000	0.00000000000000	0.00000000000000	
16.00660500000000	-6.92397400000000	729.27898600000003	41.07657500000000	0.16625000000000	0.00000000000000	0.11277400000000	0.00000000000000	0.00000000000000	0.00000000000000	0.00000000000000	0.00000000000000	0.00000000000000	0.00000000000000	14.98869700000000	0.00000000000000	0.00000000000000	0.00000000000000	0.00000000000000	
16.00827700000000	-7.49436900000000	729.93166399999996	40.98520600000000	0.16530400000000	0.00000000000000	0.11280000000000	0.00000000000000	0.00000000000000	0.00000000000000	0.00000000000000	0.00000000000000	0.00000000000000	0.00000000000000	15.03184900000000	0.00000000000000	0.00000000000000	0.00000000000000	0.00000000000000	
16.00993000000000	-8.06564700000000	730.58367299999998	40.89824200000000	0.16436400000000	0.00000000000000	0.11282600000000	0.00000000000000	0.00000000000000	0.00000000000000	0.00000000000000	0.00000000000000	0.00000000000000	0.00000000000000	15.07726800000000	0.00000000000000	0.00000000000000	0.00000000000000	0.00000000000000	
16.01160300000000	-8.63751800000000	731.23481000000004	40.81579100000000	0.16343100000000	0.00000000000000	0.11285300000000	0.00000000000000	0.00000000000000	0.00000000000000	0.00000000000000	0.00000000000000	0.00000000000000	0.00000000000000	15.12487000000000	0.00000000000000	0.00000000000000	0.00000000000000	0.00000000000000	
16.01327000000000	-9.20970100000000	731.88495200000000	40.73795600000000	0.16250300000000	0.00000000000000	0.11288000000000	0.00000000000000	0.00000000000000	0.00000000000000	0.00000000000000	0.00000000000000	0.00000000000000	0.00000000000000	15.17457100000000	0.00000000000000	0.00000000000000	0.00000000000000	0.00000000000000	
16.01494200000000	-9.78192200000000	732.53405399999997	40.66483600000000	0.16158100000000	0.00000000000000	0.11290700000000	0.00000000000000	0.00000000000000	0.00000000000000	0.00000000000000	0.00000000000000	0.00000000000000	0.00000000000000	15.22628100000000	0.00000000000000	0.00000000000000	0.00000000000000	0.00000000000000	
16.01660100000000	-10.35391700000000	733.18214899999998	40.59651900000000	0.16066500000000	0.00000000000000	0.11293500000000	0.00000000000000	0.00000000000000	0.00000000000000	0.00000000000000	0.00000000000000	0.00000000000000	0.00000000000000	15.27990600000000	0.00000000000000	0.00000000000000	0.00000000000000	0.00000000000000	
16.01827100000000	-10.92543000000000	733.82934200000000	40.53309000000000	0.15975500000000	0.00000000000000	0.11296300000000	0.00000000000000	0.00000000000000	0.00000000000000	0.00000000000000	0.00000000000000	0.00000000000000	0.00000000000000	15.33534900000000	0.00000000000000	0.00000000000000	0.00000000000000	0.00000000000000	
16.01995900000000	-11.49621400000000	734.47581200000002	40.47462500000000	0.15885000000000	0.00000000000000	0.11299200000000	0.00000000000000	0.00000000000000	0.00000000000000	0.00000000000000	0.00000000000000	0.00000000000000	0.00000000000000	15.39251200000000	0.00000000000000	0.00000000000000	0.00000000000000	0.00000000000000	
16.02160400000000	-12.06603400000000	735.12180899999998	40.42119500000000	0.15795100000000	0.00000000000000	0.11302100000000	0.00000000000000	0.00000000000000	0.00000000000000	0.00000000000000	0.00000000000000	0.00000000000000	0.00000000000000	15.45129200000000	0.00000000000000	0.00000000000000	0.00000000000000	0.00000000000000	
16.02327100000000	-12.63466300000000	735.76765100000000	40.37286400000000	0.15705700000000	0.00000000000000	0.11305000000000	0.00000000000000	0.00000000000000	0.00000000000000	0.00000000000000	0.00000000000000	0.00000000000000	0.00000000000000	15.51158400000000	0.00000000000000	0.00000000000000	0.00000000000000	0.00000000000000	
16.02493000000000	-13.20188400000000	736.41371900000001	40.32968800000000	0.15616800000000	0.00000000000000	0.11307900000000	0.00000000000000	0.00000000000000	0.00000000000000	0.00000000000000	0.00000000000000	0.00000000000000	0.00000000000000	15.57328100000000	0.00000000000000	0.00000000000000	0.00000000000000	0.00000000000000	
16.02659700000000	-13.76748900000000	737.06045900000004	40.29171900000000	0.15528400000000	0.00000000000000	0.11310900000000	0.00000000000000	0.00000000000000	0.00000000000000	0.00000000000000	0.00000000000000	0.00000000000000	0.00000000000000	15.63627400000000	0.00000000000000	0.00000000000000	0.00000000000000	0.00000000000000	
16.02826600000000	-14.33128300000000	737.70837600000004	40.25900200000000	0.15440400000000	0.00000000000000	0.11313900000000	0.00000000000000	0.00000000000000	0.00000000000000	0.00000000000000	0.00000000000000	0.00000000000000	0.00000000000000	15.70045300000000	0.00000000000000	0.00000000000000	0.00000000000000	0.00000000000000	
16.02994200000000	-14.89307900000000	738.35803199999998	40.23157400000000	0.15352700000000	0.00000000000000	0.11316900000000	0.00000000000000	0.00000000000000	0.00000000000000	0.00000000000000	0.00000000000000	0.00000000000000	0.00000000000000	15.76570500000000	0.00000000000000	0.00000000000000	0.00000000000000	0.00000000000000	
16.03160000000000	-15.45269800000000	739.01004200000000	40.20946900000000	0.15265400000000	0.00000000000000	0.11320000000000	0.00000000000000	0.00000000000000	0.00000000000000	0.00000000000000	0.00000000000000	0.00000000000000	0.00000000000000	15.83191600000000	0.00000000000000	0.00000000000000	0.00000000000000	0.00000000000000	
